<svg width="24" height="24" viewBox="0 0 24 24" fill="none" xmlns="http://www.w3.org/2000/svg">
<path d="M0.73517 19.4303C-0.292667 14.7333 -0.0147588 10.5601 0.221326 8.99249C0.389923 7.87297 6.34725 3.2954 9.73942 0.769784C11.1125 -0.252513 12.9796 -0.257135 14.357 0.759246C17.7777 3.28332 23.7934 7.87377 23.8674 8.99249C23.8698 9.02777 23.8722 9.06438 23.8747 9.1023C23.9842 10.7454 24.2569 14.8392 23.3531 19.4303C22.8394 22.0397 21.3166 23.2177 18.2126 23.6054C17.9913 23.6331 17.7704 23.6592 17.5502 23.684C17.2559 23.717 17 23.4851 17 23.1883V16.1141C17 14.4536 15.6568 13.1075 14 13.1075L9.99999 13.1075C8.34314 13.1075 6.99999 14.4536 6.99999 16.1141L6.99999 23.1799C6.99999 23.4772 6.74306 23.7094 6.44831 23.6752C6.25764 23.6531 6.06673 23.6298 5.87555 23.6054C2.77266 23.2096 1.3021 22.0211 0.73517 19.4303Z" fill="#ABAFD1"/>
<path d="M8.99999 23.4341C8.99999 23.6986 9.20506 23.9178 9.46857 23.9319C11.1525 24.0221 12.8319 24.0227 14.5307 23.9337C14.7945 23.9199 15 23.7005 15 23.4358L15 16.1141C15 15.5606 14.5523 15.1119 14 15.1119L9.99999 15.1119C9.44771 15.1119 8.99999 15.5606 8.99999 16.1141L8.99999 23.4341Z" fill="#ABAFD1"/>
</svg>
