<svg width="24" height="24" viewBox="0 0 24 24" fill="none" xmlns="http://www.w3.org/2000/svg">
<path d="M15.579 7.77872C15.9792 7.63128 16.3684 8.02049 16.221 8.42073L14.2008 13.9048C14.1502 14.0422 14.0419 14.1505 13.9045 14.2011L8.42041 16.2213C8.02017 16.3688 7.63096 15.9796 7.7784 15.5793L9.7986 10.0953C9.84922 9.95785 9.95753 9.84954 10.0949 9.79892L15.579 7.77872Z" fill="#ABAFD1"/>
<path fill-rule="evenodd" clip-rule="evenodd" d="M12 24C2.118 24 0 21.882 0 12C0 2.118 2.118 0 12 0C21.882 0 24 2.118 24 12C24 21.882 21.882 24 12 24ZM16.0775 14.5961L18.0977 9.11207C18.8349 7.11085 16.8889 5.1648 14.8876 5.90201L9.4036 7.92221C8.71655 8.17531 8.17498 8.71687 7.92189 9.40392L5.90169 14.888C5.16448 16.8892 7.11054 18.8352 9.11175 18.098L14.5958 16.0778C15.2828 15.8247 15.8244 15.2832 16.0775 14.5961Z" fill="#ABAFD1"/>
</svg>
